<?xml version="1.0" encoding="iso-8859-1"?>
<!-- Generator: Adobe Illustrator 18.0.0, SVG Export Plug-In . SVG Version: 6.00 Build 0)  -->
<!DOCTYPE svg PUBLIC "-//W3C//DTD SVG 1.1//EN" "http://www.w3.org/Graphics/SVG/1.1/DTD/svg11.dtd">
<svg version="1.1" id="Capa_1" xmlns="http://www.w3.org/2000/svg" xmlns:xlink="http://www.w3.org/1999/xlink" x="0px" y="0px"
	 viewBox="0 0 496.433 496.433" style="enable-background:new 0 0 496.433 496.433;" xml:space="preserve">
<g id="XMLID_636_">
	<path id="XMLID_638_" d="M413.81,0.001H82.624C36.988,0.001,0,36.987,0,82.624v331.185c0,45.635,36.988,82.623,82.624,82.623
		H413.81c45.638,0,82.623-36.988,82.623-82.623V82.624C496.433,36.987,459.447,0.001,413.81,0.001z M359.556,322.503
		c0,20.48-16.589,37.068-37.066,37.068H173.944c-20.477,0-37.066-16.588-37.066-37.068V173.944
		c0-20.479,16.589-37.068,37.066-37.068h148.545c20.478,0,37.066,16.59,37.066,37.068V322.503z"/>
	<rect id="XMLID_637_" x="186.452" y="186.45" width="123.529" height="123.549"/>
</g>
<g>
</g>
<g>
</g>
<g>
</g>
<g>
</g>
<g>
</g>
<g>
</g>
<g>
</g>
<g>
</g>
<g>
</g>
<g>
</g>
<g>
</g>
<g>
</g>
<g>
</g>
<g>
</g>
<g>
</g>
</svg>
