<?xml version="1.0" encoding="iso-8859-1"?>
<!-- Generator: Adobe Illustrator 16.0.0, SVG Export Plug-In . SVG Version: 6.00 Build 0)  -->
<!DOCTYPE svg PUBLIC "-//W3C//DTD SVG 1.1//EN" "http://www.w3.org/Graphics/SVG/1.1/DTD/svg11.dtd">
<svg version="1.1" id="Capa_1" xmlns="http://www.w3.org/2000/svg" xmlns:xlink="http://www.w3.org/1999/xlink" x="0px" y="0px"
	 width="409.184px" height="409.184px" viewBox="0 0 409.184 409.184" style="enable-background:new 0 0 409.184 409.184;"
	 xml:space="preserve">
<g>
	<g>
		<path d="M319.265,201.411c-2.247-4.119-6.991-5.865-10.6-3.898c-2.427,1.323-3.713,3.993-3.613,6.852l-0.188-0.342
			c-2.563-4.701-7.979-6.694-12.093-4.449c-2.836,1.546-4.313,4.698-4.12,8.047c-2.711-1.975-6.163-2.438-8.998-0.893
			c-2.27,1.237-3.663,3.507-4.034,6.081l-14.399-26.402c-2.563-4.701-7.979-6.694-12.095-4.449
			c-4.113,2.244-5.371,7.875-2.808,12.576l28.311,51.91l-7.418-5.344c-2.894-2.084-6.319-2.295-8.952-0.858
			c-1.212,0.661-2.256,1.671-3.006,3.001c-2.371,4.229-0.875,10.124,3.354,13.165c0,0,37.272,27.005,42.098,29.476
			c4.639,2.375,9.272,3.312,13.683,0.908l0.505-0.275l25.364-13.834c7.608-4.149,9.794-14.821,4.882-23.831L319.265,201.411z"/>
		<path d="M389.723,120.989H19.459C8.729,120.989,0,129.718,0,140.45v88.07c0,10.73,8.729,19.461,19.459,19.461h219.536
			c3.082,0,6.414-13.756,6.668-14.902c0.415-1.875,0.162-2.34-0.963-2.34H91.246c0,0-2.396-0.389-2.396-4.014
			c0-21.749,0-62.84,0-85.124c0-3.333,3.146-3.369,3.146-3.369h297.727c1.2,0,2.217,1.016,2.217,2.218v88.07
			c0,1.201-1.017,2.219-2.217,2.219h-34.271c0,0-4.876-0.327-3.51,2.921c1.236,2.938,4.517,9.692,5.845,11.335
			c2.414,2.986,5.665,2.986,5.665,2.986h26.271c10.729,0,19.461-8.73,19.461-19.461v-88.07
			C409.184,129.719,400.453,120.989,389.723,120.989z"/>
	</g>
	<g>
		<path d="M41.415,166.055c0.774-1.568,2.041-1.568,2.814,0l3.663,7.421c0.774,1.568,2.823,3.057,4.554,3.309l8.189,1.19
			c1.73,0.251,2.122,1.456,0.87,2.676l-5.926,5.776c-1.252,1.221-2.035,3.63-1.74,5.354l1.399,8.156
			c0.295,1.724-0.729,2.468-2.277,1.654l-7.325-3.851c-1.548-0.814-4.081-0.814-5.628,0l-7.325,3.851
			c-1.548,0.813-2.572,0.069-2.277-1.654l1.399-8.156c0.296-1.724-0.487-4.133-1.739-5.354l-5.926-5.776
			c-1.252-1.221-0.861-2.425,0.87-2.676l8.189-1.19c1.73-0.251,3.78-1.74,4.554-3.309L41.415,166.055z"/>
	</g>
</g>
<g>
</g>
<g>
</g>
<g>
</g>
<g>
</g>
<g>
</g>
<g>
</g>
<g>
</g>
<g>
</g>
<g>
</g>
<g>
</g>
<g>
</g>
<g>
</g>
<g>
</g>
<g>
</g>
<g>
</g>
</svg>
